<svg viewBox="0 0 382 131" preserveAspectRatio="xMinYMin slice" xmlns="http://www.w3.org/2000/svg"><g clip-path="url(#mask98_75655_8)"><path d="M382 0H0v132h382V0Z" fill="#9DCDD6"/><path d="M56.56 69.91v2.62c-2.4-1.69-5.28-2.64-8.28-2.64-7.96 0-14.42 6.45-14.42 14.42v5.63c0 16.22 13.14 29.39 29.36 29.42.89 0 1.69.49 2.12 1.27 1.22 2.23 2.56 4.4 4.03 6.5l3.1 4.44h51.28V69.91H56.56Zm-15.7 20.03v-5.35c0-4.15 3.39-7.78 7.54-7.71 2.17.04 4.21 1.01 5.59 2.69l2.56 3.1v3.75c0 7.41 1.16 14.72 3.4 21.69.63 1.96-1.23 3.86-3.19 3.26-9.19-2.79-15.9-11.34-15.9-21.43Zm237.57 17.79h-.74c-13.11 0-25.23-7.65-30.87-19.49L234.7 62.78l4.67-2.22 12.12 25.46c4.78 10.05 15.06 16.54 26.19 16.54h.74v5.17h.01Z" fill="#56A9B9"/><path d="m128.14 76.75-2.21-.12c1.09-19.07-12.98-20.8-13.58-20.86l.23-2.2c5.81.59 16.53 6.2 15.56 23.18Z" fill="#29410D"/><path d="M126.98 97.1h-2.21c0-40.91 12.39-56.79 12.92-57.45l1.72 1.38-.86-.69.86.69c-.03.04-3.14 3.99-6.21 12.84-2.84 8.17-6.22 22.31-6.22 43.23Z" fill="#29410D"/><path d="m126.85 104.46-2.93-.01c0-.26.05-6.4 2.27-13.76 2.97-9.86 8.46-17.14 15.87-21.06l1.37 2.59c-16.25 8.59-16.58 32.01-16.58 32.24Zm-36.9-23.65c-3.35 5.28-3.4 11.25-.13 13.33 2.13 1.35 5.15.72 7.92-1.34 1.49-1.09 2.9-2.62 4.08-4.47 1.37-2.13 2.18-4.39 2.46-6.44.4-3.02-.37-5.64-2.33-6.88-3.28-2.08-8.65.52-12 5.8Z" fill="#29410D"/><path d="M98.85 121.35V92.32h54.05v29.13c0 2.35-1.02 4.52-2.7 5.74l-6.05 4.38h-36.56l-5.93-4.4c-1.74-1.19-2.81-3.41-2.81-5.82Z" fill="#fff"/><path d="M148.13 121.46V92.33h10.13v29.13c0 2.35-1.23 4.52-3.24 5.74l-7.24 4.38h-6.79l4.92-4.38c1.37-1.22 2.22-3.4 2.22-5.74Z" fill="#D4E2FC"/><path d="M138.55 100.63a9.58 9.58 0 0 0 9.58-9.58 9.58 9.58 0 0 0-9.58-9.58 9.58 9.58 0 0 0-9.58 9.58 9.58 9.58 0 0 0 9.58 9.58Zm-40.98-5.15c0-5.29 4.29-9.58 9.58-9.58h20.21c-1.07 4.79-12.04 18.35-26.42 14.33.01-.01-3.37-.64-3.37-4.75Z" fill="#D4E2FC"/><path d="M126.457 97.317c4.341-3.025 6.156-7.923 4.053-10.941-2.103-3.018-7.327-3.013-11.668.012-4.341 3.025-6.156 7.923-4.053 10.941 2.103 3.018 7.327 3.013 11.668-.012Z" fill="#D4E2FC"/><path d="M139.66 89.5a9.58 9.58 0 0 0 9.58-9.58 9.58 9.58 0 0 0-9.58-9.58 9.58 9.58 0 0 0-9.58 9.58 9.58 9.58 0 0 0 9.58 9.58Zm-41.74-3a9.58 9.58 0 0 0 9.58-9.58 9.58 9.58 0 0 0-9.58-9.58 9.58 9.58 0 0 0 0 19.16Z" fill="#29410D"/><path d="M132.21 69.95a9.58 9.58 0 0 0 9.58-9.58 9.58 9.58 0 0 0-9.58-9.58 9.58 9.58 0 0 0-9.58 9.58 9.58 9.58 0 0 0 9.58 9.58Zm-21.424 26.286c7.082-4.935 10.341-12.5 7.278-16.895-3.062-4.395-11.287-3.958-18.37.977-7.082 4.935-10.341 12.5-7.278 16.895 3.062 4.395 11.287 3.958 18.37-.977Z" fill="#4E7C19"/><path d="M98.11 84.66c-.55-.62-.9-1.36-1.16-2.14.83-.78 1.74-1.52 2.73-2.21 6.94-4.83 14.93-5.32 18.14-1.21-.74.89-1.54 1.77-2.47 2.59-6.13 5.46-13.85 6.79-17.24 2.97Zm59.684 15.906c2.826-2.258 2.167-7.779-1.471-12.33s-8.878-6.41-11.704-4.15c-2.825 2.258-2.167 7.779 1.471 12.33s8.878 6.409 11.704 4.15Z" fill="#29410D"/><path d="M156.329 88.23c1.29 1.62 2.19 3.36 2.71 5.03-4.66.8-10.74-1.29-16.1-5.74.15-1.42.69-2.64 1.69-3.44 2.82-2.25 8.06-.4 11.7 4.15Z"/><path d="M140.72 82.39c7.86 7.86 18.19 10.27 23.06 5.4 3.17-3.17 3.25-8.65.76-14.26-1.31-3.01-3.41-6.05-6.16-8.8-3.17-3.2-6.76-5.48-10.22-6.76-5.08-1.86-9.93-1.55-12.84 1.36-4.87 4.87-2.46 15.19 5.4 23.06Z" fill="#29410D"/><path d="M157.93 72.61c2.28.66 4.53.97 6.6.92-1.31-3.01-3.41-6.05-6.16-8.8-3.17-3.2-6.76-5.48-10.22-6.76-.63.34-1.21.76-1.73 1.26-.05.1-.13.21-.18.34-1.41 4.89 3.81 10.73 11.69 13.04Z"/><path d="M115.356 61.576c6.141-5.453 8.375-12.963 4.99-16.775-3.385-3.811-11.107-2.48-17.247 2.973-6.14 5.453-8.375 12.963-4.99 16.775 3.385 3.811 11.107 2.48 17.247-2.973Zm12.194 6.334c-3.85-6.43-1.65-32.15-1.55-33.24l2.2.19c-.63 7.24-1.64 27.08 1.25 31.91l-1.9 1.14Zm29.821-13.161c6.14-5.453 8.374-12.964 4.989-16.775-3.384-3.812-11.106-2.48-17.247 2.972-6.14 5.453-8.374 12.964-4.989 16.775 3.385 3.812 11.106 2.48 17.247-2.972Z" fill="#29410D"/><path d="M151.36 45.22c-6.98 6.21-15.77 7.72-19.63 3.38-.94-1.06-1.5-2.39-1.71-3.87-.59-4.29 1.81-9.87 6.52-14.42.29-.28.57-.54.87-.81 6.99-6.21 15.77-7.72 19.63-3.38 3.86 4.34 1.31 12.89-5.68 19.1Z" fill="#4E7C19"/><path d="M138.67 36.97c-1.68 4.26-5.1 7.16-8.65 7.76-.59-4.29 1.81-9.87 6.52-14.42.86-.7 1.75-1.3 2.64-1.85.76 2.54.65 5.57-.51 8.51Z" fill="#29410D"/><path d="M135.676 35.792c2.345-5.943.401-12.278-4.34-14.148-4.742-1.87-10.487 1.432-12.831 7.376-2.345 5.944-.401 12.278 4.341 14.149 4.741 1.87 10.486-1.432 12.83-7.377Z" fill="#4E7C19"/><path d="M122.86 43.16c-3.12-1.23-5-4.4-5.27-8.12.71-.17 1.44-.28 2.2-.28 4.77 0 8.7 3.5 9.43 8.08-2.08.93-4.31 1.13-6.36.32Z" fill="#29410D"/><path d="M113.06 76.09c0 1.57.38 3.07 1.07 4.4 1.57 3.09 4.8 5.2 8.51 5.2 5.3 0 9.58-4.3 9.58-9.6 0-5.27-4.28-9.58-9.58-9.58-.83 0-1.64.1-2.4.31-4.14 1.07-7.18 4.82-7.18 9.27Z" fill="#4E7C19"/><path d="M113.06 76.09c0 1.57.38 3.07 1.07 4.4 4.7-4.25 6.99-9.69 6.11-13.66a9.559 9.559 0 0 0-7.18 9.26Z" fill="#29410D"/><path d="M133.6 61.95c.31-.03.6-.09.91-.09 5.29 0 9.58 4.29 9.58 9.58 0 3.81-2.24 7.08-5.47 8.62-5.1-6.2-7.02-13.34-5.02-18.11Z"/><path d="M133.17 76.92a9.58 9.58 0 0 0 9.58-9.58 9.58 9.58 0 0 0-9.58-9.58 9.58 9.58 0 0 0-9.58 9.58 9.58 9.58 0 0 0 9.58 9.58Zm36.295-15.088c1.434-4.892-3.791-10.73-11.672-13.041s-15.432-.22-16.867 4.672c-1.434 4.892 3.792 10.73 11.672 13.042 7.881 2.31 15.432.219 16.867-4.673Zm-56.254 17.456c6.14-5.453 8.374-12.963 4.989-16.775-3.385-3.811-11.106-2.48-17.247 2.973-6.14 5.453-8.374 12.963-4.99 16.775 3.386 3.811 11.107 2.48 17.248-2.973ZM133.55 99.88a9.58 9.58 0 0 0 9.58-9.58 9.58 9.58 0 0 0-9.58-9.58 9.58 9.58 0 0 0-9.58 9.58 9.58 9.58 0 0 0 9.58 9.58Z" fill="#4E7C19"/><path d="M123.97 90.3c0-2.14.72-4.09 1.9-5.68 1.95.09 3.63.81 4.62 2.23 2 2.87.43 7.41-3.44 10.45-1.88-1.75-3.08-4.22-3.08-7Z" fill="#29410D"/><path d="M123.606 96.547c4.341-3.025 6.156-7.923 4.053-10.941-2.103-3.018-7.327-3.013-11.668.012-4.341 3.025-6.155 7.923-4.053 10.941 2.103 3.018 7.327 3.013 11.668-.012ZM100.038 61.24c5.153-1.201 8.796-4.469 8.136-7.298-.659-2.829-5.371-4.149-10.524-2.948-5.153 1.201-8.795 4.468-8.136 7.297.66 2.83 5.371 4.15 10.524 2.949Zm13.892-9.68c5.29 0 9.58-4.29 9.58-9.58 0-5.291-4.29-9.58-9.58-9.58a9.58 9.58 0 0 0-9.58 9.58 9.58 9.58 0 0 0 9.58 9.58Z" fill="#4E7C19"/><path d="M319.26 131.57h-48.68l-4.11-73.61h69.11l-11.15 69.21c-.41 2.54-2.6 4.4-5.17 4.4Z" fill="#56A9B9"/><path d="m250.169 102.44 36.03-156.98c-31.96 34.05-38.24 120.4-39.45 156.68 1.14.07 2.29.17 3.42.3Z" fill="#10462D"/><path d="m246.499 99.88 19.1-146.32c-18.86 32.02-21.11 112.35-21.19 146.09.7.05 1.39.13 2.09.23Zm23.011-11.25 25.09-61.74c-14.95 11.52-26.03 35.74-33.75 59.25 2.98.63 5.86 1.47 8.66 2.49Z" fill="#10462D"/><path d="M294.599 26.89c-5.06 3.9-9.66 9.26-13.85 15.54-.27 10.5-2.4 21.37-4.26 29l18.11-44.54Zm-25-9.1 16.6-72.33c-9.2 9.8-16.26 23.93-21.7 39.96 0 0 9.44 13.41 5.1 32.37Zm-11.93 85.94 36.93-109.98c-24.46 21.39-39.03 69.21-47.24 108.44 3.54.25 6.98.77 10.31 1.54Z" fill="#4E7C19"/><path d="m269.51 104.93 25.09-61.74c-14.95 11.52-26.03 35.74-33.75 59.25 2.98.64 5.86 1.48 8.66 2.49Z" fill="#4E7C19"/><path d="M246.56 102.13C249.95 79.86 264.17-26.7 234.27-71l11.36 173.08c.31.02.62.03.93.05Z" fill="#10462D"/><path d="m234.27-71 2.93 44.69c7.48 15.74 14.67 35.9 15.6 56.57.78-36.68-2.65-77.75-18.53-101.26Z" fill="#4E7C19"/><path d="M243.319 97.78c-3.77-41.68-13.96-106.74-41.37-134.67l33.81 133.68c2.58.19 5.09.53 7.56.99Z" fill="#10462D"/><path d="m201.939-36.89 8.8 34.78c12.79 15.08 23.83 40.1 26.99 56.75-6.04-34.91-16.77-72.16-35.79-91.53Zm41.64 134.47c1.63-.08 3.24-.07 4.84-.01-.07-36.55-3.36-82.63-17.71-106.8l10.48 107.01c.8-.08 1.59-.16 2.39-.2Z" fill="#4E7C19"/><path d="M224.17 66.99h68.4v27.36c0 13-4.93 25.8-14.33 37.22h-33.82l-20.25-64.58Z" fill="#fff"/><path d="m205.409 66.99 39.02 64.58 8.47-64.58h-47.49Z" fill="#9DCDD6"/><path d="m242.83 17.95-11.84 99.26-86.07.09 11.84-99.26 86.07-.09Z" fill="#fff"/><path d="M159.24 33.32c-1.02-1.14-2.43-1.82-4.06-2.06l-2.39 20.03c.5-.38.99-.77 1.47-1.19 6.14-5.46 8.37-12.97 4.98-16.78Z" fill="#9DCDD6"/><path d="M157.04 26.12c-.34-.38-.72-.7-1.13-.99l-5.08 8.81 2.98 8.81c5.09-5.85 6.59-12.84 3.23-16.63Z" fill="#4E7C19"/><path d="M220.09 131.55h-83.75l5.63-24.18h83.75l-5.63 24.18Z" fill="#744C3A"/><path d="M244.43 131.55h-24.34l5.63-24.18h13.09l5.62 24.18Z" fill="#3D281E"/><path d="m245.419 18.88-11.62 98.33h-1.69l11.84-99.27 1.47.94Z" fill="#9DCDD6"/><path d="m243.949 17.95-11.82 99.26h-1.69l11.84-99.27 1.67.01Z" fill="#fff"/><path d="m170.478 39.036-8.05 63.947.555.07 8.05-63.947-.555-.07Zm10.917.008-8.05 63.947.555.07 8.05-63.947-.555-.07Zm10.919-.002-8.049 63.948.555.07 8.05-63.948-.556-.07Zm10.919-.002-8.049 63.948.555.07 8.05-63.947-.556-.07Zm10.919 0-8.049 63.947.555.07 8.05-63.948-.556-.07Zm10.918-.003-8.049 63.947.555.07 8.05-63.947-.556-.07Zm-19.26-6.467h-43.67l1.12-8.95h43.68l-1.13 8.95Zm12.05 23.86a2.53 2.53 0 1 0 0-5.06 2.53 2.53 0 0 0 0 5.06ZM216.5 67.8a2.53 2.53 0 1 0 0-5.06 2.53 2.53 0 0 0 0 5.06Zm2.72-22.73a2.53 2.53 0 1 0 0-5.06 2.53 2.53 0 0 0 0 5.06Zm-4.08 34.1a2.53 2.53 0 1 0 0-5.06 2.53 2.53 0 0 0 0 5.06Zm-1.36 11.36a2.53 2.53 0 1 0 0-5.06 2.53 2.53 0 0 0 0 5.06Zm-6.84-34.1a2.53 2.53 0 1 0 0-5.06 2.53 2.53 0 0 0 0 5.06Zm-1.36 11.37a2.53 2.53 0 1 0 0-5.06 2.53 2.53 0 0 0 0 5.06Zm-2.72 22.73a2.53 2.53 0 1 0 0-5.06 2.53 2.53 0 0 0 0 5.06Zm-6.84-34.1a2.53 2.53 0 1 0 0-5.06 2.53 2.53 0 0 0 0 5.06Zm-1.36 11.37a2.53 2.53 0 1 0 0-5.06 2.53 2.53 0 0 0 0 5.06Zm-1.359 11.37a2.53 2.53 0 1 0 0-5.06 2.53 2.53 0 0 0 0 5.06Zm-1.361 11.36a2.53 2.53 0 1 0 0-5.06 2.53 2.53 0 0 0 0 5.06Zm-6.84-34.1a2.53 2.53 0 1 0 0-5.06 2.53 2.53 0 0 0 0 5.06Zm-1.36 11.37a2.53 2.53 0 1 0 0-5.06 2.53 2.53 0 0 0 0 5.06Zm-1.359 11.37a2.53 2.53 0 1 0 0-5.06 2.53 2.53 0 0 0 0 5.06Zm-1.361 11.36a2.53 2.53 0 1 0 0-5.06 2.53 2.53 0 0 0 0 5.06Zm-6.84-34.1a2.53 2.53 0 1 0 0-5.06 2.53 2.53 0 0 0 0 5.06Zm-1.36 11.37a2.53 2.53 0 1 0 0-5.06 2.53 2.53 0 0 0 0 5.06Zm-1.359 11.37a2.53 2.53 0 1 0 0-5.06 2.53 2.53 0 0 0 0 5.06ZM170.1 90.53a2.53 2.53 0 1 0 0-5.06 2.53 2.53 0 0 0 0 5.06Zm-6.84-34.1a2.53 2.53 0 1 0 0-5.06 2.53 2.53 0 0 0 0 5.06ZM161.9 67.8a2.53 2.53 0 1 0 0-5.06 2.53 2.53 0 0 0 0 5.06Zm-1.36 11.37a2.53 2.53 0 1 0 0-5.06 2.53 2.53 0 0 0 0 5.06Zm-1.36 11.36a2.53 2.53 0 1 0 0-5.06 2.53 2.53 0 0 0 0 5.06Zm-1.36 11.37a2.53 2.53 0 1 0 0-5.06 2.53 2.53 0 0 0 0 5.06Zm71.91-45.47a2.53 2.53 0 1 0 0-5.06 2.53 2.53 0 0 0 0 5.06Zm-1.36 11.37a2.53 2.53 0 1 0 0-5.06 2.53 2.53 0 0 0 0 5.06Z" fill="#D2E8EC"/><path d="M229.73 56.43a2.53 2.53 0 1 0 0-5.06 2.53 2.53 0 0 0 0 5.06Zm1.361-11.36a2.53 2.53 0 1 0 0-5.06 2.53 2.53 0 0 0 0 5.06Zm-4.081 34.1a2.53 2.53 0 1 0 0-5.06 2.53 2.53 0 0 0 0 5.06Zm-1.36 11.36a2.53 2.53 0 1 0 0-5.06 2.53 2.53 0 0 0 0 5.06Z" fill="#D2E8EC"/><path d="M213.6 76.09c-2.74 3.87-6.93 6.99-11.36 8.67-1.94.74-4.08 1.29-6.17 1.06-.82-.09-1.61-.32-2.26-.81a2.79 2.79 0 0 1-1-1.55c-.45-1.75.49-3.85 1.45-5.41 1.29-2.09 3.03-3.89 4.93-5.44 1.89-1.54 4.02-2.85 6.26-3.81 1.87-.8 3.92-1.4 5.98-1.4 1 0 2.03.15 2.87.65.67.4 1.1.98 1.29 1.7.58 2.11-.77 4.58-1.99 6.34-.79 1.14 1.07 2.22 1.86 1.09 1.39-2.01 2.66-4.53 2.39-7.04-.23-2.19-1.64-3.83-3.73-4.5-2.27-.73-4.86-.34-7.1.33-2.63.79-5.12 2.07-7.37 3.64-2.32 1.61-4.42 3.53-6.14 5.77-1.55 2.02-2.93 4.5-2.95 7.11-.02 2.05 1.04 3.96 2.94 4.83 2.19 1 4.75.8 7.03.24 5.89-1.45 11.45-5.45 14.93-10.38.34-.47.08-1.2-.39-1.47-.54-.32-1.14-.09-1.47.38Z" fill="#4E7C19"/><path d="M199.229 77.14c.46 1.06.92 2.12 1.38 3.19.28.65 1.25.66 1.69.22l6.96-6.96.99-.99c.98-.98-.54-2.5-1.52-1.52l-6.96 6.96-.99.99c.56.07 1.13.15 1.69.22-.46-1.06-.92-2.12-1.38-3.19-.23-.53-1.01-.65-1.47-.39-.56.32-.62.94-.39 1.47Z" fill="#4E7C19"/><path d="M141.97 106.32h83.75l-.6 2.57h-83.75l.6-2.57Z" fill="#BC8B2C"/><path d="M231.62 106.32h-5.9l-.6 2.57h6.19l.31-2.57Zm7.19 0h-3.85l-.3 2.57h4.75l-.6-2.57Z" fill="#674D1B"/></g></svg>